<svg id="Camada_1" data-name="Camada 1" xmlns="http://www.w3.org/2000/svg" xmlns:xlink="http://www.w3.org/1999/xlink" viewBox="0 0 864 192.5"><defs><style>.cls-1{fill-rule:evenodd;fill:url(#Gradiente_sem_nome_3);}.cls-2{font-size:72px;fill:#e76f51;font-family:Poppins-Bold, Poppins;font-weight:700;letter-spacing:0.05em;}</style><linearGradient id="Gradiente_sem_nome_3" x1="78.85" y1="192.5" x2="78.85" y2="0.5" gradientUnits="userSpaceOnUse"><stop offset="0" stop-color="#e86f51"/><stop offset="0.5" stop-color="#f5a462"/><stop offset="1" stop-color="#e8c468"/></linearGradient></defs><path class="cls-1" d="M142,152.79l-85.5,25.49a3.59,3.59,0,0,1-4.57-4.15L82.47,26.65A3,3,0,0,1,86,24.39,2.92,2.92,0,0,1,88,26l56.56,121.08a4.11,4.11,0,0,1-2,5.47A4.49,4.49,0,0,1,142,152.79Zm14.66-6L91.19,6.58h0a10.51,10.51,0,0,0-9-6.06,10.38,10.38,0,0,0-9.59,5l-71,116a10.92,10.92,0,0,0,.13,11.66l34.72,54.22A11.15,11.15,0,0,0,49,192l100.78-30a11,11,0,0,0,7.47-13.6,13,13,0,0,0-.61-1.61Z"/><text class="cls-2" transform="translate(190 113.27)">prisma.systems</text></svg>